<svg width="40" height="40" viewBox="0 0 40 40" fill="none" xmlns="http://www.w3.org/2000/svg">
<rect width="40" height="40" rx="20" fill="#8E5B23"/>
<path d="M13.2 15C13.0428 15 12.8936 15.033 12.7563 15.0875L19.5438 21.0188C19.8371 21.2751 20.1497 21.2753 20.4438 21.0188L27.2438 15.0875C27.1064 15.033 26.9572 15 26.8 15H13.2ZM12.0125 16.0312C12.0049 16.0859 12 16.1432 12 16.2V24.2C12 24.8648 12.5352 25.4 13.2 25.4H26.8C27.4648 25.4 28 24.8648 28 24.2V16.2C28 16.1432 27.9951 16.0859 27.9875 16.0312L21.2312 21.925C20.5263 22.5398 19.4611 22.5408 18.7562 21.925L12.0125 16.0312Z" fill="white"/>
</svg>
