<svg width="207" height="49" viewBox="0 0 207 49" fill="none" xmlns="http://www.w3.org/2000/svg">
<path d="M57.3957 34.1707C54.1005 34.1707 51.3989 33.1091 49.3505 30.986C47.2724 28.8629 46.2334 26.0616 46.2334 22.5526C46.2334 19.0436 47.2724 16.2717 49.3802 14.1781C51.4583 12.0845 54.1598 11.0229 57.4848 11.0229C60.8097 11.0229 63.5112 12.055 65.6487 14.0897C67.7862 16.1243 68.8252 18.8666 68.8252 22.2577C68.8252 23.0539 68.7658 23.7616 68.6471 24.4398H52.1411C52.2895 25.9141 52.8239 27.0937 53.7739 27.9783C54.7239 28.8629 55.941 29.3052 57.4254 29.3052C59.4144 29.3052 60.8988 28.4796 61.8488 26.8577H68.0533C67.4002 29.0103 66.1237 30.7501 64.2534 32.1065C62.3534 33.4924 60.0675 34.1707 57.3957 34.1707ZM61.1956 17.1858C60.1863 16.3012 58.9394 15.8589 57.4848 15.8589C56.0301 15.8589 54.8426 16.3012 53.863 17.1858C52.8833 18.0705 52.3192 19.2795 52.1114 20.7538H62.8284C62.7691 19.2795 62.205 18.0705 61.1956 17.1858Z" fill="#30A05F"/>
<path d="M77.0786 33.8466H71.3193V3.79883H77.0786V20.9606L84.7082 11.3476H92.5159L82.452 22.7298L92.5159 33.8466H84.8269L77.0489 24.4696V33.8466H77.0786Z" fill="#30A05F"/>
<path d="M95.5435 30.9565C93.3466 28.8039 92.2185 26.0026 92.2185 22.5526C92.2185 19.1025 93.3466 16.3012 95.5731 14.1781C97.7997 12.055 100.59 11.0229 103.886 11.0229C107.21 11.0229 109.971 12.0845 112.198 14.1781C114.424 16.3012 115.553 19.073 115.553 22.5526C115.553 26.0321 114.424 28.8334 112.168 30.9565C109.912 33.1091 107.121 34.1707 103.796 34.1707C100.501 34.1707 97.7403 33.0796 95.5435 30.9565ZM103.826 29.3347C105.429 29.3347 106.825 28.745 107.982 27.5655C109.14 26.3859 109.734 24.7346 109.734 22.5821C109.734 20.4295 109.17 18.7782 108.012 17.5987C106.854 16.4487 105.489 15.8589 103.856 15.8589C102.223 15.8589 100.857 16.4487 99.759 17.5987C98.6309 18.7487 98.0965 20.4295 98.0965 22.5821C98.0965 24.7346 98.6606 26.4154 99.759 27.5655C100.857 28.745 102.223 29.3347 103.826 29.3347Z" fill="#30A05F"/>
<path fill-rule="evenodd" clip-rule="evenodd" d="M36.1776 11.864C33.3357 15.3819 30.4223 18.7682 26.6054 21.227C26.7341 21.4756 26.9444 21.3826 27.0933 21.3795C30.2786 21.3731 33.2137 20.5143 35.7858 18.5099C38.0855 16.718 39.6664 14.4236 40.6458 11.7128C41.4834 9.37449 41.7863 6.98809 41.6139 4.55235C41.5903 4.25716 41.58 4.03562 41.1625 4.07379C37.7043 4.32244 34.3408 5.02742 31.2528 6.79115C28.5113 8.35556 26.4418 10.527 25.2642 13.4637C24.4473 15.5206 24.2102 17.61 24.7613 19.7275C24.8026 19.8892 24.8439 20.051 24.9149 20.2122C25.0698 20.6377 25.1141 20.6516 25.5645 20.4649C27.1875 19.7218 28.6081 18.6873 30.0003 17.5942C31.8465 16.1369 33.5475 14.5053 35.2194 12.8446C35.5392 12.498 35.8584 12.181 36.1776 11.864Z" fill="#30A05F"/>
<path fill-rule="evenodd" clip-rule="evenodd" d="M13.1842 20.8638C17.0182 25.6099 20.9488 30.1785 26.0983 33.4957C25.9246 33.8312 25.6409 33.7057 25.44 33.7016C21.1427 33.6928 17.1829 32.5342 13.7128 29.83C10.6102 27.4126 8.47731 24.317 7.15599 20.6598C6.02588 17.5052 5.6173 14.2856 5.84988 10.9995C5.88172 10.6013 5.89556 10.3024 6.45887 10.3539C11.1244 10.6893 15.6623 11.6404 19.8283 14.0199C23.5269 16.1305 26.319 19.0601 27.9077 23.022C29.0098 25.7971 29.3297 28.6159 28.5862 31.4727C28.5305 31.6909 28.4748 31.9092 28.3789 32.1266C28.17 32.7007 28.1102 32.7194 27.5025 32.4676C25.313 31.4651 23.3963 30.0694 21.5182 28.5946C19.0274 26.6286 16.7325 24.4273 14.4769 22.1868C14.0454 21.7192 13.6148 21.2915 13.1842 20.8638Z" fill="#30A05F"/>
<path d="M170.574 47.3774H173.098V48.9107H168.526V45.9325L167.873 46.0799V44.1338L168.526 43.9863V40.6248H170.545V43.5145L171.287 43.3376V45.2838L170.545 45.4607V47.3774H170.574Z" fill="#8E5B23"/>
<path d="M174.404 47.791C173.573 46.9948 173.157 45.9628 173.157 44.7538C173.157 43.5448 173.573 42.5127 174.404 41.7166C175.235 40.9204 176.245 40.5076 177.432 40.5076C178.62 40.5076 179.629 40.9204 180.46 41.7166C181.291 42.5127 181.677 43.5153 181.677 44.7538C181.677 45.9922 181.262 46.9948 180.431 47.791C179.599 48.5872 178.59 49 177.402 49C176.215 49 175.235 48.5872 174.404 47.791ZM179.035 46.464C179.421 46.0217 179.629 45.4615 179.629 44.7243C179.629 43.9871 179.421 43.4268 179.035 42.9845C178.649 42.5422 178.115 42.3358 177.432 42.3358C176.749 42.3358 176.215 42.5422 175.829 42.9845C175.443 43.4268 175.235 43.9871 175.235 44.7243C175.235 45.4615 175.443 46.0217 175.829 46.464C176.215 46.9064 176.749 47.1128 177.432 47.1128C178.115 47.1128 178.649 46.9064 179.035 46.464Z" fill="#8E5B23"/>
<path d="M191.86 40.6248V48.9107H189.841V44.2517L187.911 48.9107H186.397L184.468 44.2517V48.9107H182.419V40.6248H184.735L187.139 46.3453L189.514 40.6248H191.86Z" fill="#8E5B23"/>
<path d="M198.628 40.6251V42.1584L195.066 47.3777H198.628V48.9111H192.75V47.3777L196.312 42.1584H192.75V40.6251H198.628ZM196.312 39.6225C196.134 39.7994 195.927 39.8584 195.689 39.8584C195.452 39.8584 195.244 39.77 195.066 39.6225C194.887 39.4456 194.828 39.2392 194.828 39.0033C194.828 38.7674 194.917 38.561 195.066 38.384C195.244 38.2071 195.452 38.1187 195.689 38.1187C195.927 38.1187 196.134 38.2071 196.312 38.384C196.491 38.561 196.58 38.7674 196.58 39.0033C196.55 39.2392 196.461 39.4456 196.312 39.6225Z" fill="#8E5B23"/>
<path d="M204.833 48.9112L204.358 47.5253H201.359L200.884 48.9112H198.747L201.656 40.5957H204.12L207 48.9112H204.833ZM201.864 45.9919H203.823L202.844 43.0432L201.864 45.9919Z" fill="#8E5B23"/>
<path d="M123.997 14.8984C125.6 12.3624 127.975 11.0945 131.063 11.0945C134.15 11.0945 136.733 12.156 138.752 14.3086C140.77 16.4612 141.78 19.233 141.78 22.6241C141.78 26.0152 140.77 28.8165 138.752 30.9691C136.733 33.1217 134.18 34.2127 131.122 34.2127C128.064 34.2127 125.689 32.8563 123.997 30.1139V44.0614H118.238V11.3894H123.997V14.8984ZM134.15 27.4601C135.338 26.2806 135.932 24.6587 135.932 22.5946C135.932 20.5305 135.338 18.9382 134.15 17.7587C132.963 16.6086 131.568 16.0189 129.964 16.0189C128.361 16.0189 126.966 16.6086 125.779 17.7881C124.591 18.9676 123.997 20.5895 123.997 22.6536C123.997 24.7177 124.591 26.3395 125.779 27.519C126.966 28.6985 128.361 29.2883 129.964 29.2883C131.568 29.2588 132.963 28.669 134.15 27.4601Z" fill="#8E5B23"/>
<path d="M145.728 30.94C143.709 28.7579 142.67 25.9861 142.67 22.5951C142.67 19.204 143.68 16.4322 145.698 14.2796C147.717 12.127 150.27 11.0654 153.387 11.0654C156.504 11.0654 158.85 12.3334 160.512 14.8693V11.3898H166.242V33.8888H160.512V30.1144C158.79 32.8567 156.415 34.2131 153.358 34.2131C150.3 34.2131 147.747 33.1221 145.728 30.94ZM158.701 27.49C159.889 26.3105 160.512 24.6887 160.512 22.6245C160.512 20.5604 159.918 18.9386 158.701 17.7591C157.514 16.5796 156.089 15.9898 154.486 15.9898C152.883 15.9898 151.487 16.5796 150.3 17.7296C149.112 18.8796 148.519 20.5014 148.519 22.5656C148.519 24.6297 149.112 26.2515 150.329 27.431C151.517 28.6105 152.912 29.2297 154.515 29.2297C156.118 29.2297 157.514 28.6695 158.701 27.49Z" fill="#8E5B23"/>
<path d="M176.068 11.3898V15.3706C177.582 12.5103 179.809 11.0654 182.689 11.0654V16.904H181.264C179.542 16.904 178.265 17.3168 177.375 18.1719C176.514 19.0271 176.068 20.5014 176.068 22.5656V33.8593H170.309V11.3603H176.068V11.3898Z" fill="#8E5B23"/>
<path d="M190.497 33.8883H184.738V3.84058H190.497V21.0023L198.127 11.3894H205.934L195.87 22.7716L205.934 33.8883H198.245L190.497 24.5113V33.8883Z" fill="#8E5B23"/>
</svg>
