<svg width="102" height="24" viewBox="0 0 102 24" fill="none" xmlns="http://www.w3.org/2000/svg">
<path d="M7.95598 2.80614H1.22146C0.56121 2.80614 0 2.27795 0 1.6177C0 0.957451 0.56121 0.39624 1.22146 0.39624H17.348C18.0083 0.39624 18.5695 0.957451 18.5695 1.6177C18.5695 2.27795 18.0083 2.80614 17.348 2.80614H10.597V22.432C10.597 23.1583 10.0028 23.7525 9.27648 23.7525C8.55021 23.7525 7.95598 23.1583 7.95598 22.432V2.80614Z" fill="white"/>
<path d="M20.6821 12.066V12C20.6821 5.5956 25.4854 0 32.5501 0C39.6147 0 44.352 5.54608 44.352 11.934V12C44.352 18.4044 39.5487 24 32.4841 24C25.4194 24 20.6821 18.4539 20.6821 12.066ZM41.645 12.066V12C41.645 6.73453 37.799 2.4099 32.4841 2.4099C27.1691 2.4099 23.3891 6.652 23.3891 11.934V12C23.3891 17.2655 27.2351 21.5901 32.5501 21.5901C37.8651 21.5901 41.645 17.3315 41.645 12.066Z" fill="white"/>
<path d="M49.8979 1.5846C49.8979 0.891342 50.4922 0.297119 51.1854 0.297119H51.4825C52.0438 0.297119 52.4399 0.594231 52.704 0.990379L60.9901 13.4526L69.2762 0.990379C69.5403 0.561218 69.9695 0.297119 70.4977 0.297119H70.7948C71.488 0.297119 72.0823 0.891342 72.0823 1.5846V22.4484C72.0823 23.1747 71.488 23.7689 70.7948 23.7689C70.0685 23.7689 69.4743 23.1417 69.4743 22.4484V5.13343L62.0465 16.044C61.7494 16.4732 61.4193 16.7043 60.9571 16.7043C60.4949 16.7043 60.1318 16.4732 59.8347 16.044L52.4399 5.16645V22.4814C52.4399 23.2077 51.8787 23.7689 51.1524 23.7689C50.4592 23.7689 49.8979 23.2077 49.8979 22.4814V1.5846Z" fill="white"/>
<path d="M77.6616 12.066V12C77.6616 5.5956 82.4649 0 89.5296 0C96.5942 0 101.331 5.54608 101.331 11.934V12C101.331 18.4044 96.5282 24 89.4635 24C82.3989 24 77.6616 18.4539 77.6616 12.066ZM98.6245 12.066V12C98.6245 6.73453 94.7785 2.4099 89.4635 2.4099C84.1485 2.4099 80.3686 6.652 80.3686 11.934V12C80.3686 17.2655 84.2146 21.5901 89.5296 21.5901C94.8446 21.5901 98.6245 17.3315 98.6245 12.066Z" fill="white"/>
</svg>
