<svg width="18" height="18" viewBox="0 0 18 18" fill="none" xmlns="http://www.w3.org/2000/svg">
<path fill-rule="evenodd" clip-rule="evenodd" d="M9.03104 7.09614C6.59698 9.04919 4.25396 11.0515 2.55271 13.6747C2.38066 13.5862 2.44503 13.4416 2.44715 13.3393C2.45164 11.1502 3.04583 9.13307 4.4327 7.3654C5.67249 5.7849 7.26004 4.69841 9.13565 4.02532C10.7535 3.44963 12.4047 3.24149 14.09 3.35997C14.2942 3.37619 14.4475 3.38325 14.4211 3.6702C14.2491 6.04686 13.7613 8.35847 12.5409 10.4807C11.4585 12.3648 9.95607 13.7871 7.9242 14.5964C6.50097 15.1578 5.05533 15.3208 3.59023 14.942C3.4783 14.9136 3.36637 14.8853 3.25487 14.8364C2.96044 14.73 2.95084 14.6995 3.08001 14.39C3.59413 13.2746 4.30994 12.2983 5.06626 11.3415C6.07454 10.0727 7.2035 8.90363 8.35251 7.75463C8.59233 7.53485 8.81169 7.31549 9.03104 7.09614Z" fill="white"/>
</svg>
