<svg width="16" height="12" viewBox="0 0 16 12" fill="none" xmlns="http://www.w3.org/2000/svg">
<path d="M15.6463 5.1759L10.7116 0.334594C10.2568 -0.111534 9.49895 -0.111534 9.04421 0.334594C8.58947 0.780721 8.58947 1.52427 9.04421 1.9704L11.9579 4.84544L1.17895 4.84544C0.522105 4.84544 5.80692e-07 5.35766 5.24356e-07 6.00206C4.6802e-07 6.64647 0.522105 7.15869 1.17895 7.15869L11.9579 7.15869L9.04421 10.0172C8.58947 10.4633 8.58947 11.2069 9.04421 11.653C9.28 11.8843 9.58316 12 9.88632 12C10.1895 12 10.4926 11.8843 10.7284 11.653L15.6463 6.82823C15.8653 6.61343 16 6.31601 16 6.00207C16 5.68812 15.8821 5.39071 15.6463 5.1759Z" fill="white"/>
</svg>
