<svg width="208" height="46" viewBox="0 0 208 46" fill="none" xmlns="http://www.w3.org/2000/svg">
<path d="M58.6968 30.4728C55.4129 30.4728 52.7206 29.4077 50.6792 27.2776C48.6082 25.1474 47.5728 22.3368 47.5728 18.8162C47.5728 15.2955 48.6082 12.5145 50.7088 10.4139C52.7798 8.31336 55.472 7.24829 58.7856 7.24829C62.0991 7.24829 64.7914 8.28378 66.9215 10.3252C69.0517 12.3666 70.0872 15.118 70.0872 18.5203C70.0872 19.3191 70.028 20.0292 69.9097 20.7096H53.4602C53.6082 22.1889 54.1407 23.3723 55.0874 24.2599C56.0342 25.1474 57.2472 25.5912 58.7264 25.5912C60.7086 25.5912 62.1879 24.7628 63.1346 23.1356H69.318C68.6671 25.2953 67.3949 27.0409 65.531 28.4018C63.6376 29.7923 61.3595 30.4728 58.6968 30.4728ZM62.4838 13.4316C61.4779 12.5441 60.2353 12.1003 58.7856 12.1003C57.3359 12.1003 56.1525 12.5441 55.1762 13.4316C54.1999 14.3192 53.6377 15.5322 53.4306 17.0115H64.1109C64.0518 15.5322 63.4897 14.3192 62.4838 13.4316Z" fill="white"/>
<path d="M78.3118 30.1474H72.5723V0H78.3118V17.2187L85.9152 7.57384H93.6962L83.6668 18.9938L93.6962 30.1474H86.0336L78.2822 20.7393V30.1474H78.3118Z" fill="white"/>
<path d="M96.714 27.248C94.5246 25.0882 93.4004 22.2776 93.4004 18.8162C93.4004 15.3547 94.5246 12.5441 96.7435 10.4139C98.9624 8.28378 101.743 7.24829 105.027 7.24829C108.341 7.24829 111.092 8.31336 113.311 10.4139C115.53 12.5441 116.654 15.3251 116.654 18.8162C116.654 22.3072 115.53 25.1178 113.282 27.248C111.033 29.4077 108.252 30.4728 104.939 30.4728C101.655 30.4728 98.9033 29.3781 96.714 27.248ZM104.968 25.6208C106.566 25.6208 107.956 25.0291 109.11 23.8457C110.264 22.6622 110.856 21.0055 110.856 18.8457C110.856 16.686 110.294 15.0292 109.14 13.8458C107.986 12.692 106.625 12.1003 104.998 12.1003C103.371 12.1003 102.01 12.692 100.915 13.8458C99.7908 14.9996 99.2583 16.686 99.2583 18.8457C99.2583 21.0055 99.8204 22.6918 100.915 23.8457C102.01 25.0291 103.371 25.6208 104.968 25.6208Z" fill="white"/>
<path fill-rule="evenodd" clip-rule="evenodd" d="M32.1302 14.1416C31.0198 14.8506 29.8705 15.54 28.8964 16.4262C27.9614 17.2731 27.0458 18.1397 26.2471 19.1441C26.1886 19.2032 26.1497 19.282 26.0328 19.3411C25.9549 18.9275 26.0328 18.5336 26.0912 18.1594C26.9484 13.6296 29.6367 10.8723 34.0199 9.74966C35.8121 9.29668 37.6238 9.29668 39.4355 9.65119C40.1173 9.78905 40.0394 9.71027 39.9225 10.3405C39.5913 12.3297 39.0264 14.2401 38.0523 15.993C37.4874 17.0368 36.7861 17.9821 35.929 18.8093C34.0783 20.5622 31.8965 21.4878 29.3445 21.3894C28.5068 21.3697 27.7081 21.1727 26.9484 20.8379C26.3445 20.5819 26.3445 20.5622 26.6756 20.0304C27.377 18.9078 28.2341 17.9427 29.1692 17.0171C30.0263 16.1505 30.9419 15.343 31.877 14.5749C31.9939 14.4764 32.1107 14.3583 32.2276 14.2598C32.6562 13.9841 33.0458 13.6493 33.416 13.2751C32.9095 13.4326 32.5588 13.8462 32.1302 14.1416Z" fill="white"/>
<path fill-rule="evenodd" clip-rule="evenodd" d="M18.1148 8.74786C17.6684 12.8194 17.3522 16.8522 18.2078 20.8656C17.966 20.9432 17.8916 20.7493 17.7986 20.6524C15.7711 18.6166 14.4505 16.193 14.0971 13.2654C13.7809 10.6479 14.2459 8.1662 15.3619 5.80081C16.3292 3.76502 17.6684 2.03945 19.3425 0.585318C19.5471 0.410822 19.6959 0.275103 19.9377 0.56593C21.9837 2.93132 23.6764 5.52937 24.5134 8.63153C25.2574 11.3847 25.183 14.0991 24.0484 16.7359C23.2486 18.5778 22.0581 20.0707 20.3469 21.0789C20.2167 21.1565 20.0865 21.234 19.9377 21.2922C19.5657 21.4667 19.5285 21.4473 19.3611 21.0401C18.803 19.5278 18.5612 17.9574 18.3752 16.3675C18.1334 14.2542 18.0962 12.1214 18.0962 9.98872C18.1148 9.56217 18.1148 9.15501 18.1148 8.74786Z" fill="white"/>
<path fill-rule="evenodd" clip-rule="evenodd" d="M32.0795 26.7913C30.2339 26.1748 28.3882 25.6671 26.4093 25.6309C26.5045 25.4858 26.6186 25.4496 26.7328 25.3952C29.1493 23.9809 31.9654 24.0716 34.2677 25.649C35.4093 26.4286 36.2846 27.4259 36.9125 28.6407C37.0457 28.8945 37.0457 28.9126 36.7793 29.0396C35.5045 29.7104 34.1726 30.2 32.7265 30.345C30.8237 30.5445 29.0732 30.1818 27.589 28.9489C26.866 28.3324 26.3332 27.6072 26.0668 26.7006C26.0478 26.6644 26.0478 26.61 26.0288 26.5737C25.9717 26.2836 25.9717 26.2473 26.2952 26.2292C27.2085 26.1567 28.1218 26.1929 29.0161 26.3199C29.9484 26.4468 30.8808 26.61 31.8131 26.8275C31.8702 26.8275 31.9654 26.8457 32.0795 26.7913ZM32.3079 26.8457C32.2698 26.8457 32.2317 26.8275 32.1937 26.8457C32.1556 26.8457 32.1556 26.8638 32.1937 26.8819C32.2127 26.8819 32.2508 26.9001 32.2698 26.8819C32.2698 26.8819 32.2888 26.8638 32.3079 26.8457Z" fill="white"/>
<path fill-rule="evenodd" clip-rule="evenodd" d="M9.60831 20.5415C7.63043 20.6368 5.83739 21.2659 4.0998 22.0093C4.32162 21.9522 4.56193 21.8759 4.78375 21.8187C5.00556 21.7615 5.24587 21.7043 5.46769 21.6471C6.63224 21.3421 7.81528 21.1134 9.03528 21.0752C9.31255 21.0752 9.57134 21.0943 9.84862 21.1134C9.95953 21.1134 10.015 21.1706 9.9965 21.2849C9.95953 21.5328 9.90407 21.7615 9.81165 21.9903C9.23861 23.4963 8.16649 24.4685 6.72466 25.0213C5.39375 25.517 4.04435 25.4788 2.69495 25.1548C1.80767 24.9451 0.957364 24.5829 0.144027 24.1635C0.0146327 24.0872 -0.0408221 24.03 0.0331177 23.8775C0.90191 21.9712 2.21434 20.5224 4.15526 19.779C6.02224 19.0736 7.79679 19.3786 9.47892 20.408C9.4974 20.4462 9.51589 20.4652 9.60831 20.5415ZM3.87798 22.0665L3.89647 22.0856L3.87798 22.0665ZM3.67465 22.1428H3.71162V22.1618L3.67465 22.1428Z" fill="white"/>
<path fill-rule="evenodd" clip-rule="evenodd" d="M8.92012 12.9096C9.71112 13.5877 10.5021 14.2851 11.2931 14.9632C11.7302 15.3507 12.1049 15.8157 12.4796 16.2807C12.7086 16.5519 12.6045 16.7069 12.3131 16.8425C11.0641 17.4237 9.73193 17.5012 8.37891 17.2881C6.46386 16.9587 4.9235 16.0094 3.67456 14.6339C2.25909 13.0646 1.53054 11.2047 1.03096 9.24792C0.968511 8.99606 0.968511 8.78295 1.34319 8.70545C5.02758 7.81425 9.79438 8.78295 11.98 12.5027C12.5212 13.4521 12.8543 14.4595 13 15.6413C11.7302 14.5564 10.5854 13.4521 9.10746 12.7352C9.0242 12.619 8.92012 12.5609 8.77441 12.5415C8.71196 12.5027 8.6287 12.464 8.56625 12.4252C8.5038 12.309 8.37891 12.2509 8.2332 12.2509C8.14994 12.1734 8.06667 12.0959 7.98341 12.2121C7.94178 12.2703 8.04586 12.3284 8.12912 12.3477C8.17075 12.4834 8.29565 12.5415 8.42054 12.5802C8.48299 12.619 8.54543 12.6771 8.6287 12.7159C8.69114 12.8127 8.79522 12.8708 8.92012 12.9096Z" fill="white"/>
<path fill-rule="evenodd" clip-rule="evenodd" d="M11.9844 5.92899C11.6273 5.46149 11.3454 5.02863 10.9319 4.68233C10.9131 4.66502 10.8756 4.66502 10.838 4.66502C10.7628 4.76891 10.8568 4.82085 10.9131 4.89011C11.1763 5.21909 11.4206 5.54807 11.6085 5.91167C11.6649 6.03288 11.7401 6.13676 11.7589 6.27528C11.3266 6.44843 10.8756 6.4138 10.4433 6.30991C9.42838 6.05019 8.77057 5.42686 8.37589 4.56113C8.09397 3.9378 8 3.27985 8 2.60458C8 2.48337 8 2.3968 8.16915 2.3968C9.67271 2.37949 11.2514 3.07207 11.7965 4.47456C12.0032 4.92474 12.022 5.39224 11.9844 5.92899ZM10.011 3.88586C10.0298 3.90318 10.0486 3.9378 10.0862 3.95512C10.105 3.97243 10.1238 3.98975 10.1614 4.02438C10.1802 4.04169 10.199 4.05901 10.2365 4.09364C10.2365 4.12827 10.2553 4.14558 10.3117 4.16289C10.3869 4.33604 10.5373 4.45724 10.6876 4.57845C10.7252 4.61308 10.744 4.64771 10.8004 4.59576C10.838 4.54382 10.8004 4.5265 10.7628 4.49187C10.6312 4.35336 10.5373 4.18021 10.3117 4.14558C10.3305 4.09364 10.2929 4.07632 10.2365 4.07632C10.2365 4.02438 10.2177 4.00706 10.1614 4.00706C10.1614 3.97243 10.1426 3.95512 10.0862 3.9378C10.0486 3.9378 10.0298 3.90318 10.011 3.88586C9.99221 3.86855 10.011 3.88586 10.011 3.88586Z" fill="white"/>
<path fill-rule="evenodd" clip-rule="evenodd" d="M27.8274 6.4601C27.6314 7.32673 27.5211 8.22735 27.5579 9.14496C27.4844 9.17895 27.4721 9.09398 27.4354 9.043C26.835 7.92148 26.8595 6.49408 27.4844 5.35557C27.6804 4.99872 27.9254 4.70984 28.195 4.45495C28.2807 4.36998 28.3297 4.36998 28.391 4.50593C28.783 5.33857 29.0526 6.20521 28.9913 7.22477C28.9301 8.12539 28.636 8.83909 28.0479 9.2809C27.7907 9.46782 27.7784 9.45083 27.7416 9.06C27.6681 8.41427 27.7049 7.78554 27.7661 7.13981C27.7906 6.88492 27.8029 6.681 27.8274 6.4601Z" fill="white"/>
<path fill-rule="evenodd" clip-rule="evenodd" d="M13.7366 28.5414C12.8856 28.5168 12.0549 28.5414 11.2445 28.837C12.1562 28.9109 13.0882 28.7385 14 29.0834C13.9595 29.4529 13.8177 29.7239 13.6556 29.9703C13.1085 30.8079 12.3791 31.276 11.4876 31.3746C10.2112 31.5224 9.11707 30.9065 8.10401 30.0196C7.96218 29.8964 7.98245 29.7978 8.06349 29.65C8.97524 28.1472 10.1301 27.2849 11.7105 27.4081C12.5007 27.482 13.149 27.9008 13.7366 28.5414ZM10.8393 28.8863C10.9608 28.9356 11.0419 28.9602 11.1229 28.8863C11.0824 28.8124 11.0419 28.837 11.0216 28.837C10.9608 28.8617 10.9203 28.8617 10.8393 28.8863Z" fill="white"/>
<path d="M171.487 43.7234H174.002V45.2618H169.446V42.2737L168.795 42.4217V40.469L169.446 40.3211V36.9484H171.458V39.8477L172.197 39.6702V41.6229L171.458 41.8004V43.7234H171.487Z" fill="white"/>
<path d="M175.304 44.138C174.475 43.3392 174.061 42.3037 174.061 41.0907C174.061 39.8777 174.475 38.8422 175.304 38.0434C176.132 37.2446 177.138 36.8304 178.322 36.8304C179.505 36.8304 180.511 37.2446 181.339 38.0434C182.168 38.8422 182.552 39.8481 182.552 41.0907C182.552 42.3333 182.138 43.3392 181.31 44.138C180.481 44.9368 179.475 45.351 178.292 45.351C177.109 45.351 176.132 44.9368 175.304 44.138ZM179.919 42.8067C180.304 42.3629 180.511 41.8008 180.511 41.0611C180.511 40.3215 180.304 39.7594 179.919 39.3156C179.535 38.8718 179.002 38.6647 178.322 38.6647C177.641 38.6647 177.109 38.8718 176.724 39.3156C176.339 39.7594 176.132 40.3215 176.132 41.0611C176.132 41.8008 176.339 42.3629 176.724 42.8067C177.109 43.2505 177.641 43.4576 178.322 43.4576C179.002 43.4576 179.535 43.2505 179.919 42.8067Z" fill="white"/>
<path d="M192.7 36.9484V45.2618H190.689V40.5874L188.766 45.2618H187.257L185.334 40.5874V45.2618H183.292V36.9484H185.6L187.996 42.6879L190.363 36.9484H192.7Z" fill="white"/>
<path d="M199.445 36.9486V38.487L195.895 43.7236H199.445V45.2621H193.587V43.7236L197.137 38.487H193.587V36.9486H199.445ZM197.137 35.9427C196.96 36.1202 196.753 36.1794 196.516 36.1794C196.279 36.1794 196.072 36.0906 195.895 35.9427C195.717 35.7652 195.658 35.5581 195.658 35.3214C195.658 35.0847 195.747 34.8776 195.895 34.7001C196.072 34.5226 196.279 34.4338 196.516 34.4338C196.753 34.4338 196.96 34.5226 197.137 34.7001C197.315 34.8776 197.404 35.0847 197.404 35.3214C197.374 35.5581 197.285 35.7652 197.137 35.9427Z" fill="white"/>
<path d="M205.629 45.2623L205.155 43.8717H202.167L201.694 45.2623H199.564L202.463 36.9192H204.919L207.788 45.2623H205.629ZM202.67 42.3333H204.623L203.646 39.3748L202.67 42.3333Z" fill="white"/>
<path d="M125.071 11.1366C126.668 8.59224 129.035 7.32007 132.112 7.32007C135.189 7.32007 137.763 8.38514 139.775 10.5449C141.787 12.7046 142.792 15.4856 142.792 18.8879C142.792 22.2902 141.787 25.1008 139.775 27.2606C137.763 29.4203 135.219 30.515 132.171 30.515C129.124 30.515 126.757 29.154 125.071 26.4026V40.3964H119.331V7.61592H125.071V11.1366ZM135.189 23.7399C136.372 22.5565 136.964 20.9293 136.964 18.8583C136.964 16.7874 136.372 15.1898 135.189 14.0064C134.006 12.8525 132.615 12.2608 131.018 12.2608C129.42 12.2608 128.029 12.8525 126.846 14.0359C125.663 15.2193 125.071 16.8465 125.071 18.9175C125.071 20.9885 125.663 22.6157 126.846 23.7991C128.029 24.9825 129.42 25.5742 131.018 25.5742C132.615 25.5446 134.006 24.9529 135.189 23.7399Z" fill="white"/>
<path d="M146.727 27.2312C144.716 25.0418 143.68 22.2608 143.68 18.8585C143.68 15.4562 144.686 12.6752 146.698 10.5155C148.71 8.35572 151.254 7.29065 154.36 7.29065C157.467 7.29065 159.804 8.56282 161.461 11.1072V7.61609H167.171V30.1897H161.461V26.4028C159.745 29.1542 157.378 30.5151 154.331 30.5151C151.284 30.5151 148.739 29.4205 146.727 27.2312ZM159.656 23.7697C160.84 22.5863 161.461 20.9591 161.461 18.8881C161.461 16.8171 160.869 15.1899 159.656 14.0065C158.473 12.8231 157.053 12.2314 155.455 12.2314C153.858 12.2314 152.467 12.8231 151.284 13.9769C150.1 15.1308 149.508 16.758 149.508 18.8289C149.508 20.8999 150.1 22.5271 151.313 23.7105C152.497 24.8939 153.887 25.5152 155.485 25.5152C157.082 25.5152 158.473 24.9531 159.656 23.7697Z" fill="white"/>
<path d="M176.963 7.61609V11.6101C178.472 8.74033 180.691 7.29065 183.561 7.29065V13.1485H182.141C180.425 13.1485 179.153 13.5627 178.265 14.4207C177.407 15.2787 176.963 16.758 176.963 18.8289V30.1601H171.224V7.5865H176.963V7.61609Z" fill="white"/>
<path d="M191.343 30.1894H185.603V0.0419922H191.343V17.2606L198.946 7.61583H206.727L196.698 19.0358L206.727 30.1894H199.065L191.343 20.7813V30.1894Z" fill="white"/>
</svg>
